<?xml version="1.0" standalone="no"?>
<!DOCTYPE svg PUBLIC "-//W3C//DTD SVG 20010904//EN"
 "http://www.w3.org/TR/2001/REC-SVG-20010904/DTD/svg10.dtd">
<svg version="1.0" xmlns="http://www.w3.org/2000/svg"
 width="720.000000pt" height="720.000000pt" viewBox="0 0 720.000000 720.000000"
 preserveAspectRatio="xMidYMid meet">
<metadata>
Created by potrace 1.14, written by Peter Selinger 2001-2017
</metadata>
<g transform="translate(0.000000,720.000000) scale(0.100000,-0.100000)"
fill="#000000" stroke="none">
<path d="M3025 7110 c-33 -3 -70 -11 -83 -19 -36 -19 -62 -44 -62 -57 0 -7 -5
-14 -12 -16 -6 -2 -13 -29 -16 -59 -5 -60 9 -98 50 -141 49 -50 41 -50 703
-49 367 0 631 4 645 9 32 13 90 64 94 82 1 8 7 24 13 36 7 11 8 26 4 33 -5 7
-6 21 -4 31 13 48 -62 133 -128 146 -42 7 -1121 11 -1204 4z"/>
<path d="M2517 7054 c-1 -1 -24 -4 -52 -7 -119 -13 -191 -38 -293 -105 -49
-32 -162 -136 -162 -149 0 -3 -14 -23 -31 -44 -17 -21 -27 -39 -22 -39 4 0 2
-4 -5 -9 -7 -4 -14 -14 -16 -22 -1 -8 -7 -23 -13 -34 -13 -24 -44 -137 -48
-180 -2 -16 -4 -215 -4 -441 l-1 -411 -72 0 c-70 0 -166 -8 -198 -17 -8 -2
-30 -7 -47 -11 -18 -4 -33 -12 -33 -17 0 -5 -5 -6 -10 -3 -10 6 -154 -68 -178
-92 -7 -7 -26 -20 -42 -30 -17 -9 -30 -21 -30 -25 0 -5 -12 -21 -28 -36 -41
-43 -72 -81 -72 -91 0 -5 -6 -16 -13 -23 -14 -15 -57 -98 -61 -119 -2 -8 -8
-26 -14 -41 -6 -15 -13 -38 -15 -52 -1 -14 -6 -28 -9 -32 -4 -3 -7 -219 -8
-479 -1 -448 0 -474 17 -474 10 0 34 -2 53 -5 42 -6 107 -14 173 -21 l48 -6
119 119 c88 88 128 121 158 130 91 27 167 0 222 -78 35 -49 35 -139 1 -193
-13 -21 -21 -40 -19 -43 3 -2 25 -6 49 -9 47 -4 98 -11 193 -25 32 -5 63 -7
67 -4 5 3 9 2 9 -3 0 -4 15 -9 33 -9 17 -1 48 -4 67 -7 33 -5 137 -18 170 -22
9 0 20 -4 25 -7 6 -3 19 -4 30 -2 11 2 40 -1 64 -7 24 -5 67 -12 95 -14 28 -2
51 -5 51 -5 0 -3 80 -14 180 -24 28 -3 61 -8 75 -11 14 -3 50 -7 80 -10 30 -3
66 -8 80 -10 24 -5 59 -10 130 -20 19 -2 50 -7 68 -9 32 -5 41 1 158 118 68
67 124 121 124 118 0 -3 9 7 20 20 42 54 389 391 455 443 21 17 44 35 50 40
14 13 45 33 65 42 8 4 24 15 34 25 11 10 42 29 70 44 69 36 90 48 96 54 5 5
29 16 140 62 25 11 54 23 65 28 90 42 227 55 290 29 17 -7 33 -12 37 -11 4 1
31 -22 61 -51 101 -98 113 -189 52 -387 -1 -3 -7 -18 -13 -33 -7 -16 -12 -30
-12 -33 0 -2 -19 -44 -42 -92 -23 -48 -41 -90 -40 -94 1 -5 -2 -8 -7 -8 -5 0
-13 -10 -17 -22 -3 -12 -11 -26 -15 -32 -5 -6 -35 -49 -66 -96 -31 -47 -59
-87 -62 -90 -3 -3 -19 -23 -36 -45 -16 -22 -178 -189 -360 -372 -287 -288
-330 -335 -329 -360 1 -15 2 -28 3 -28 1 0 4 -25 7 -55 2 -30 7 -66 9 -80 3
-14 8 -48 10 -76 3 -28 7 -61 10 -72 5 -30 24 -166 30 -227 3 -22 7 -56 11
-75 3 -19 7 -48 9 -65 2 -16 6 -48 9 -70 13 -89 18 -122 22 -160 2 -22 6 -53
8 -70 9 -56 16 -110 22 -155 2 -25 7 -61 10 -80 3 -19 8 -53 11 -75 3 -22 6
-59 7 -82 0 -24 5 -43 10 -43 4 0 6 -11 4 -24 -8 -39 7 -54 30 -32 22 20 98
45 124 41 64 -10 127 -52 156 -104 20 -34 23 -123 7 -155 -8 -14 -11 -26 -8
-26 3 0 -36 -42 -88 -94 -122 -121 -161 -165 -154 -176 3 -5 8 -26 11 -47 3
-21 7 -51 9 -68 3 -16 7 -50 10 -75 3 -25 8 -61 11 -80 3 -19 8 -51 9 -70 2
-19 4 -35 5 -35 1 0 3 -13 5 -30 1 -16 6 -57 11 -90 4 -33 8 -70 8 -82 1 -17
7 -23 26 -24 138 -3 1181 1 1200 6 14 3 41 8 60 11 68 11 260 105 260 127 0 4
3 6 8 3 4 -2 38 27 75 65 37 38 65 69 61 69 -3 0 1 7 8 15 27 30 34 41 63 100
16 33 30 62 30 65 1 3 9 29 18 59 16 50 17 205 17 2030 -1 1245 -4 1993 -11
2021 -9 45 -16 70 -19 80 -1 3 -2 8 -1 13 0 4 -4 7 -9 7 -5 0 -9 3 -8 8 2 13
-22 64 -52 109 -17 24 -30 46 -30 49 0 2 -13 18 -30 34 -16 16 -30 35 -30 41
0 7 -3 10 -6 6 -3 -3 -19 7 -34 23 -43 44 -182 129 -220 135 -3 0 -10 3 -16 7
-11 7 -71 22 -134 33 -19 3 -74 7 -123 7 -48 1 -91 6 -94 11 -9 14 -9 117 0
117 5 0 5 5 1 11 -9 16 -11 309 -1 309 5 0 5 5 1 11 -9 16 -11 309 -1 309 5 0
6 4 3 9 -4 5 -8 29 -11 53 -13 109 -27 163 -62 233 -54 106 -130 195 -220 257
-129 89 -253 124 -443 123 l-75 -1 -2 -115 -1 -115 96 1 c96 1 142 -6 202 -30
50 -20 70 -31 70 -37 0 -4 6 -8 13 -8 30 -1 122 -108 155 -180 39 -85 41 -115
42 -539 l0 -417 -1504 0 -1503 0 -1 410 c0 252 3 430 10 459 36 164 173 299
340 333 18 4 75 8 126 8 101 1 112 7 105 54 -3 22 -4 86 -1 111 0 3 0 20 -1
36 l-1 30 -81 0 c-44 0 -81 -1 -82 -1z"/>
<path d="M1040 2425 l0 -925 606 605 c334 333 605 607 603 609 -2 2 -53 29
-114 61 -60 32 -137 73 -170 90 -33 18 -91 49 -130 70 -38 20 -76 41 -82 47
-7 6 -13 7 -13 3 0 -4 -6 -2 -14 4 -13 11 -39 25 -171 94 -33 17 -63 35 -66
40 -3 5 -12 10 -20 11 -21 4 -53 19 -59 26 -3 4 -32 20 -65 37 -140 71 -190
98 -195 104 -8 9 -90 49 -100 49 -6 0 -10 -335 -10 -925z"/>
<path d="M2191 1299 c-403 -402 -730 -736 -728 -743 6 -13 81 -40 159 -56 67
-13 2128 -20 2128 -7 0 4 -23 52 -52 105 -118 220 -139 259 -165 312 -16 30
-30 57 -33 60 -3 3 -20 32 -36 65 -17 33 -50 96 -74 140 -23 44 -63 118 -88
165 -25 47 -56 105 -70 130 -13 25 -45 83 -70 130 -66 126 -93 174 -104 188
-6 6 -8 12 -4 12 4 0 -1 11 -10 25 -20 31 -80 141 -96 178 -7 15 -15 27 -19
27 -3 0 -336 -329 -738 -731z"/>
<path d="M2133 332 c-22 -3 -23 -7 -23 -105 0 -103 13 -177 30 -177 6 0 10 -5
10 -11 0 -33 28 -39 191 -39 142 0 163 2 176 17 12 16 35 59 37 73 1 3 4 10 7
15 3 6 5 59 5 119 l-1 110 -205 0 c-113 1 -215 0 -227 -2z"/>
<path d="M4658 332 c-15 -3 -33 -42 -20 -42 4 0 6 -30 5 -67 -1 -85 11 -144
40 -188 l22 -35 164 0 c162 0 164 0 187 25 13 14 21 25 19 25 -2 0 3 16 11 37
16 37 24 227 10 240 -6 6 -407 11 -438 5z"/>
</g>
</svg>
